<svg width="21" height="21" viewBox="0 0 21 21" fill="none" xmlns="http://www.w3.org/2000/svg">
<g clip-path="url(#clip0_7001_7203)">
<path d="M20.305 10.7304C20.305 10.0506 20.2499 9.36714 20.1323 8.69839H10.7V12.5492H16.1015C15.8773 13.7912 15.1571 14.8898 14.1026 15.588V18.0866H17.325C19.2174 16.3449 20.305 13.7728 20.305 10.7304Z" fill="#4285F4"/>
<path d="M10.7 20.5007C13.397 20.5007 15.6715 19.6151 17.3287 18.0866L14.1062 15.5879C13.2096 16.1979 12.0522 16.5433 10.7037 16.5433C8.0948 16.5433 5.88279 14.7832 5.08911 12.4169H1.76373V14.9927C3.46133 18.3695 6.91898 20.5007 10.7 20.5007Z" fill="#34A853"/>
<path d="M5.08546 12.4169C4.66657 11.175 4.66657 9.83011 5.08546 8.58814V6.01236H1.76376C0.345428 8.83801 0.345428 12.1671 1.76376 14.9927L5.08546 12.4169Z" fill="#FBBC04"/>
<path d="M10.7 4.45805C12.1257 4.436 13.5036 4.97247 14.5361 5.95722L17.3911 3.10218C15.5833 1.40459 13.1839 0.471278 10.7 0.500674C6.91898 0.500674 3.46133 2.63185 1.76373 6.01234L5.08543 8.58813C5.87544 6.21811 8.09113 4.45805 10.7 4.45805Z" fill="#EA4335"/>
</g>
<defs>
<clipPath id="clip0_7001_7203">
<rect width="20" height="20" fill="white" transform="translate(0.5 0.5)"/>
</clipPath>
</defs>
</svg>
